<mxfile host="app.diagrams.net" modified="2022-12-07T11:15:03.822Z" agent="5.0 (Windows NT 10.0; WOW64) AppleWebKit/537.36 (KHTML, like Gecko) Chrome/92.0.4515.131 Safari/537.36 SLBrowser/8.0.0.3161 SLBChan/25" version="20.6.0" etag="OL5FO7ep8fXpz_R25Ljv" type="github">
  <diagram id="o6bV-joKSiRu6LrQOOpa" name="第 1 页">
    <mxGraphModel dx="1038" dy="1749" grid="1" gridSize="10" guides="1" tooltips="1" connect="1" arrows="1" fold="1" page="1" pageScale="1" pageWidth="827" pageHeight="1169" math="0" shadow="0">
      <root>
        <mxCell id="0" />
        <mxCell id="1" parent="0" />
        <mxCell id="u1l0fMXMlNOJ1PT-ZIPo-1" value="&lt;font style=&quot;font-size: 20px;&quot;&gt;开始&lt;/font&gt;" style="rounded=0;whiteSpace=wrap;html=1;" vertex="1" parent="1">
          <mxGeometry x="315" y="-110" width="90" height="30" as="geometry" />
        </mxCell>
        <mxCell id="u1l0fMXMlNOJ1PT-ZIPo-2" value="" style="endArrow=classic;html=1;rounded=0;fontSize=20;exitX=0.5;exitY=1;exitDx=0;exitDy=0;entryX=0.5;entryY=0;entryDx=0;entryDy=0;" edge="1" parent="1" source="u1l0fMXMlNOJ1PT-ZIPo-1" target="u1l0fMXMlNOJ1PT-ZIPo-3">
          <mxGeometry width="50" height="50" relative="1" as="geometry">
            <mxPoint x="389" y="180" as="sourcePoint" />
            <mxPoint x="365" y="100" as="targetPoint" />
          </mxGeometry>
        </mxCell>
        <mxCell id="u1l0fMXMlNOJ1PT-ZIPo-50" style="edgeStyle=orthogonalEdgeStyle;rounded=0;orthogonalLoop=1;jettySize=auto;html=1;entryX=0.5;entryY=0;entryDx=0;entryDy=0;fontSize=14;" edge="1" parent="1" source="u1l0fMXMlNOJ1PT-ZIPo-3" target="u1l0fMXMlNOJ1PT-ZIPo-49">
          <mxGeometry relative="1" as="geometry" />
        </mxCell>
        <mxCell id="u1l0fMXMlNOJ1PT-ZIPo-3" value="先按预设时间休眠" style="rounded=0;whiteSpace=wrap;html=1;fontSize=20;" vertex="1" parent="1">
          <mxGeometry x="295" y="-20" width="130" height="50" as="geometry" />
        </mxCell>
        <mxCell id="u1l0fMXMlNOJ1PT-ZIPo-17" style="edgeStyle=orthogonalEdgeStyle;rounded=0;orthogonalLoop=1;jettySize=auto;html=1;fontSize=14;" edge="1" parent="1" source="u1l0fMXMlNOJ1PT-ZIPo-6" target="u1l0fMXMlNOJ1PT-ZIPo-16">
          <mxGeometry relative="1" as="geometry" />
        </mxCell>
        <mxCell id="u1l0fMXMlNOJ1PT-ZIPo-6" value="开始读操作" style="rounded=0;whiteSpace=wrap;html=1;fontSize=20;" vertex="1" parent="1">
          <mxGeometry x="300" y="390" width="120" height="60" as="geometry" />
        </mxCell>
        <mxCell id="u1l0fMXMlNOJ1PT-ZIPo-15" style="edgeStyle=orthogonalEdgeStyle;rounded=0;orthogonalLoop=1;jettySize=auto;html=1;entryX=0;entryY=0.5;entryDx=0;entryDy=0;fontSize=14;" edge="1" parent="1" source="u1l0fMXMlNOJ1PT-ZIPo-7" target="u1l0fMXMlNOJ1PT-ZIPo-13">
          <mxGeometry relative="1" as="geometry" />
        </mxCell>
        <mxCell id="u1l0fMXMlNOJ1PT-ZIPo-47" style="edgeStyle=orthogonalEdgeStyle;rounded=0;orthogonalLoop=1;jettySize=auto;html=1;entryX=0.5;entryY=0;entryDx=0;entryDy=0;fontSize=14;" edge="1" parent="1" source="u1l0fMXMlNOJ1PT-ZIPo-7" target="u1l0fMXMlNOJ1PT-ZIPo-45">
          <mxGeometry relative="1" as="geometry" />
        </mxCell>
        <mxCell id="u1l0fMXMlNOJ1PT-ZIPo-7" value="&lt;font style=&quot;font-size: 14px;&quot;&gt;当前为等待态/读状态&lt;/font&gt;" style="rhombus;whiteSpace=wrap;html=1;fontSize=20;" vertex="1" parent="1">
          <mxGeometry x="272.5" y="190" width="175" height="80" as="geometry" />
        </mxCell>
        <mxCell id="u1l0fMXMlNOJ1PT-ZIPo-11" value="Y" style="text;html=1;strokeColor=none;fillColor=none;align=center;verticalAlign=middle;whiteSpace=wrap;rounded=0;fontSize=14;" vertex="1" parent="1">
          <mxGeometry x="384" y="250" width="60" height="30" as="geometry" />
        </mxCell>
        <mxCell id="u1l0fMXMlNOJ1PT-ZIPo-12" value="N" style="text;html=1;strokeColor=none;fillColor=none;align=center;verticalAlign=middle;whiteSpace=wrap;rounded=0;fontSize=14;" vertex="1" parent="1">
          <mxGeometry x="405" y="180" width="60" height="30" as="geometry" />
        </mxCell>
        <mxCell id="u1l0fMXMlNOJ1PT-ZIPo-13" value="等待当前写操作完成" style="rounded=0;whiteSpace=wrap;html=1;fontSize=14;" vertex="1" parent="1">
          <mxGeometry x="510" y="200" width="120" height="60" as="geometry" />
        </mxCell>
        <mxCell id="u1l0fMXMlNOJ1PT-ZIPo-57" style="edgeStyle=orthogonalEdgeStyle;rounded=0;orthogonalLoop=1;jettySize=auto;html=1;entryX=0.5;entryY=0;entryDx=0;entryDy=0;fontSize=14;" edge="1" parent="1" source="u1l0fMXMlNOJ1PT-ZIPo-16" target="u1l0fMXMlNOJ1PT-ZIPo-56">
          <mxGeometry relative="1" as="geometry" />
        </mxCell>
        <mxCell id="u1l0fMXMlNOJ1PT-ZIPo-16" value="结束后休眠" style="rounded=0;whiteSpace=wrap;html=1;fontSize=20;" vertex="1" parent="1">
          <mxGeometry x="300" y="490" width="120" height="60" as="geometry" />
        </mxCell>
        <mxCell id="u1l0fMXMlNOJ1PT-ZIPo-26" style="edgeStyle=orthogonalEdgeStyle;rounded=0;orthogonalLoop=1;jettySize=auto;html=1;fontSize=14;" edge="1" parent="1" source="u1l0fMXMlNOJ1PT-ZIPo-20" target="u1l0fMXMlNOJ1PT-ZIPo-25">
          <mxGeometry relative="1" as="geometry" />
        </mxCell>
        <mxCell id="u1l0fMXMlNOJ1PT-ZIPo-34" style="edgeStyle=orthogonalEdgeStyle;rounded=0;orthogonalLoop=1;jettySize=auto;html=1;entryX=0;entryY=0.5;entryDx=0;entryDy=0;fontSize=14;" edge="1" parent="1" source="u1l0fMXMlNOJ1PT-ZIPo-20" target="u1l0fMXMlNOJ1PT-ZIPo-33">
          <mxGeometry relative="1" as="geometry" />
        </mxCell>
        <mxCell id="u1l0fMXMlNOJ1PT-ZIPo-20" value="有读者在等待？" style="rhombus;whiteSpace=wrap;html=1;fontSize=14;" vertex="1" parent="1">
          <mxGeometry x="275" y="710" width="170" height="80" as="geometry" />
        </mxCell>
        <mxCell id="u1l0fMXMlNOJ1PT-ZIPo-53" style="edgeStyle=orthogonalEdgeStyle;rounded=0;orthogonalLoop=1;jettySize=auto;html=1;fontSize=14;" edge="1" parent="1" source="u1l0fMXMlNOJ1PT-ZIPo-25" target="u1l0fMXMlNOJ1PT-ZIPo-52">
          <mxGeometry relative="1" as="geometry" />
        </mxCell>
        <mxCell id="u1l0fMXMlNOJ1PT-ZIPo-25" value="进入读状态" style="rounded=0;whiteSpace=wrap;html=1;fontSize=14;" vertex="1" parent="1">
          <mxGeometry x="300" y="850" width="120" height="60" as="geometry" />
        </mxCell>
        <mxCell id="u1l0fMXMlNOJ1PT-ZIPo-27" value="Y" style="text;html=1;strokeColor=none;fillColor=none;align=center;verticalAlign=middle;whiteSpace=wrap;rounded=0;fontSize=14;" vertex="1" parent="1">
          <mxGeometry x="340" y="790" width="60" height="30" as="geometry" />
        </mxCell>
        <mxCell id="u1l0fMXMlNOJ1PT-ZIPo-28" value="N" style="text;html=1;strokeColor=none;fillColor=none;align=center;verticalAlign=middle;whiteSpace=wrap;rounded=0;fontSize=14;" vertex="1" parent="1">
          <mxGeometry x="400" y="700" width="60" height="30" as="geometry" />
        </mxCell>
        <mxCell id="u1l0fMXMlNOJ1PT-ZIPo-54" style="edgeStyle=orthogonalEdgeStyle;rounded=0;orthogonalLoop=1;jettySize=auto;html=1;entryX=1;entryY=0.5;entryDx=0;entryDy=0;fontSize=14;" edge="1" parent="1" source="u1l0fMXMlNOJ1PT-ZIPo-31" target="u1l0fMXMlNOJ1PT-ZIPo-52">
          <mxGeometry relative="1" as="geometry" />
        </mxCell>
        <mxCell id="u1l0fMXMlNOJ1PT-ZIPo-31" value="进行写状态" style="rounded=0;whiteSpace=wrap;html=1;fontSize=14;" vertex="1" parent="1">
          <mxGeometry x="500" y="830" width="120" height="60" as="geometry" />
        </mxCell>
        <mxCell id="u1l0fMXMlNOJ1PT-ZIPo-36" style="edgeStyle=orthogonalEdgeStyle;rounded=0;orthogonalLoop=1;jettySize=auto;html=1;entryX=0.5;entryY=0;entryDx=0;entryDy=0;fontSize=14;" edge="1" parent="1" source="u1l0fMXMlNOJ1PT-ZIPo-33" target="u1l0fMXMlNOJ1PT-ZIPo-31">
          <mxGeometry relative="1" as="geometry" />
        </mxCell>
        <mxCell id="u1l0fMXMlNOJ1PT-ZIPo-40" style="edgeStyle=orthogonalEdgeStyle;rounded=0;orthogonalLoop=1;jettySize=auto;html=1;fontSize=14;" edge="1" parent="1" source="u1l0fMXMlNOJ1PT-ZIPo-33" target="u1l0fMXMlNOJ1PT-ZIPo-39">
          <mxGeometry relative="1" as="geometry" />
        </mxCell>
        <mxCell id="u1l0fMXMlNOJ1PT-ZIPo-33" value="有写者在等待？" style="rhombus;whiteSpace=wrap;html=1;fontSize=14;" vertex="1" parent="1">
          <mxGeometry x="475" y="710" width="170" height="80" as="geometry" />
        </mxCell>
        <mxCell id="u1l0fMXMlNOJ1PT-ZIPo-37" value="Y" style="text;html=1;strokeColor=none;fillColor=none;align=center;verticalAlign=middle;whiteSpace=wrap;rounded=0;fontSize=14;" vertex="1" parent="1">
          <mxGeometry x="560" y="780" width="60" height="30" as="geometry" />
        </mxCell>
        <mxCell id="u1l0fMXMlNOJ1PT-ZIPo-55" style="edgeStyle=orthogonalEdgeStyle;rounded=0;orthogonalLoop=1;jettySize=auto;html=1;entryX=1;entryY=0.5;entryDx=0;entryDy=0;fontSize=14;" edge="1" parent="1" source="u1l0fMXMlNOJ1PT-ZIPo-39" target="u1l0fMXMlNOJ1PT-ZIPo-52">
          <mxGeometry relative="1" as="geometry">
            <Array as="points">
              <mxPoint x="715.5" y="1010" />
            </Array>
          </mxGeometry>
        </mxCell>
        <mxCell id="u1l0fMXMlNOJ1PT-ZIPo-39" value="进入等待状态" style="rounded=0;whiteSpace=wrap;html=1;fontSize=14;" vertex="1" parent="1">
          <mxGeometry x="655" y="830" width="120" height="60" as="geometry" />
        </mxCell>
        <mxCell id="u1l0fMXMlNOJ1PT-ZIPo-48" style="edgeStyle=orthogonalEdgeStyle;rounded=0;orthogonalLoop=1;jettySize=auto;html=1;entryX=0.5;entryY=0;entryDx=0;entryDy=0;fontSize=14;" edge="1" parent="1" source="u1l0fMXMlNOJ1PT-ZIPo-45" target="u1l0fMXMlNOJ1PT-ZIPo-6">
          <mxGeometry relative="1" as="geometry" />
        </mxCell>
        <mxCell id="u1l0fMXMlNOJ1PT-ZIPo-45" value="释放共享资源" style="rounded=0;whiteSpace=wrap;html=1;fontSize=14;" vertex="1" parent="1">
          <mxGeometry x="300" y="300" width="120" height="60" as="geometry" />
        </mxCell>
        <mxCell id="u1l0fMXMlNOJ1PT-ZIPo-51" style="edgeStyle=orthogonalEdgeStyle;rounded=0;orthogonalLoop=1;jettySize=auto;html=1;fontSize=14;" edge="1" parent="1" source="u1l0fMXMlNOJ1PT-ZIPo-49" target="u1l0fMXMlNOJ1PT-ZIPo-7">
          <mxGeometry relative="1" as="geometry" />
        </mxCell>
        <mxCell id="u1l0fMXMlNOJ1PT-ZIPo-49" value="互斥访问共享资源" style="rounded=0;whiteSpace=wrap;html=1;fontSize=14;" vertex="1" parent="1">
          <mxGeometry x="300" y="80" width="120" height="60" as="geometry" />
        </mxCell>
        <mxCell id="u1l0fMXMlNOJ1PT-ZIPo-52" value="释放共享资源" style="rounded=0;whiteSpace=wrap;html=1;fontSize=14;" vertex="1" parent="1">
          <mxGeometry x="300" y="980" width="120" height="60" as="geometry" />
        </mxCell>
        <mxCell id="u1l0fMXMlNOJ1PT-ZIPo-58" style="edgeStyle=orthogonalEdgeStyle;rounded=0;orthogonalLoop=1;jettySize=auto;html=1;entryX=0.5;entryY=0;entryDx=0;entryDy=0;fontSize=14;" edge="1" parent="1" source="u1l0fMXMlNOJ1PT-ZIPo-56" target="u1l0fMXMlNOJ1PT-ZIPo-20">
          <mxGeometry relative="1" as="geometry" />
        </mxCell>
        <mxCell id="u1l0fMXMlNOJ1PT-ZIPo-56" value="互斥访问共享资源" style="rounded=0;whiteSpace=wrap;html=1;fontSize=14;" vertex="1" parent="1">
          <mxGeometry x="300" y="600" width="120" height="60" as="geometry" />
        </mxCell>
      </root>
    </mxGraphModel>
  </diagram>
</mxfile>
